<?xml version="1.0" encoding="iso-8859-1"?>
<!-- Generator: Adobe Illustrator 19.0.0, SVG Export Plug-In . SVG Version: 6.00 Build 0)  -->
<svg version="1.1" id="Capa_1" xmlns="http://www.w3.org/2000/svg" xmlns:xlink="http://www.w3.org/1999/xlink" x="0px" y="0px"
	 viewBox="0 0 512.001 512.001" style="enable-background:new 0 0 512.001 512.001;" xml:space="preserve">
<path style="fill:#C0E3F0;" d="M502,226v60l-49.71,10.93c-5.17,24.53-14.83,47.77-28.71,68.66l23.34,38.9l-42.43,42.43l-39.37-23.62
	c-20.74,13.44-43.67,22.89-67.91,27.85L286,502h-60l-11.21-50.85c-24.24-4.96-47.17-14.41-67.91-27.85l-39.37,23.62l-42.43-42.43
	l23.34-38.9c-13.88-20.89-23.54-44.13-28.71-68.66L10,286v-60l49.33-10.83c5.03-24.83,14.74-48.33,28.66-69.48l-22.91-38.18
	l42.43-42.43l38.18,22.91c21.15-13.92,44.65-23.63,69.48-28.66L226,10h60l10.83,49.33c24.83,5.03,48.33,14.74,69.48,28.66
	l38.18-22.91l42.43,42.43l-22.91,38.18c13.92,21.15,23.63,44.65,28.66,69.48L502,226z"/>
<path style="fill:#FEB756;" d="M256,96c-88.37,0-160,71.63-160,160s71.63,160,160,160s160-71.63,160-160S344.37,96,256,96z"/>
<path d="M196,166c5.52,0,10-4.48,10-10s-4.48-10-10-10s-10,4.48-10,10S190.48,166,196,166z"/>
<path d="M256,86c-93.738,0-170,76.262-170,170s76.262,170,170,170s170-76.262,170-170S349.738,86,256,86z M256,406
	c-82.71,0-150-67.29-150-150s67.29-150,150-150s150,67.29,150,150S338.71,406,256,406z"/>
<path d="M256,126c-7.751,0-15.55,0.695-23.18,2.068c-5.436,0.978-9.05,6.176-8.072,11.612s6.176,9.055,11.612,8.071
	C242.825,146.59,249.433,146,256,146c60.654,0,110,49.346,110,110s-49.346,110-110,110s-110-49.346-110-110
	c0-23.452,7.308-45.841,21.132-64.748c3.26-4.458,2.289-10.715-2.17-13.975c-4.457-3.26-10.714-2.287-13.975,2.17
	C134.641,201.804,126,228.275,126,256c0,71.683,58.318,130,130,130c71.683,0,130-58.317,130-130S327.683,126,256,126z"/>
<path d="M256,166c-5.522,0-10,4.478-10,10v10h-10c-16.542,0-30,13.458-30,30v20c0,16.542,13.458,30,30,30h10v40h-10
	c-5.514,0-10-4.486-10-10c0-5.522-4.477-10-10-10s-10,4.478-10,10c0,16.542,13.458,30,30,30h10v10c0,5.522,4.478,10,10,10
	s10-4.478,10-10v-10h10c16.542,0,30-13.458,30-30v-20c0-16.542-13.458-30-30-30h-10v-40h10c5.514,0,10,4.486,10,10
	c0,5.522,4.478,10,10,10s10-4.478,10-10c0-16.542-13.458-30-30-30h-10v-10C266,170.478,261.522,166,256,166z M276,266
	c5.514,0,10,4.486,10,10v20c0,5.514-4.486,10-10,10h-10v-40H276z M246,246h-10c-5.514,0-10-4.486-10-10v-20c0-5.514,4.486-10,10-10
	h10V246z"/>
<path d="M504.145,216.232l-43.076-9.457c-5.104-21.685-13.593-42.233-25.303-61.241l19.729-32.879
	c2.36-3.935,1.74-8.972-1.504-12.217l-42.43-42.43c-3.245-3.245-8.283-3.864-12.217-1.504l-32.879,19.729
	c-19.008-11.71-39.557-20.199-61.241-25.303l-9.457-43.076C294.761,3.269,290.696,0,286,0h-60c-4.697,0-8.76,3.269-9.768,7.855
	l-9.457,43.076c-21.685,5.104-42.233,13.593-61.241,25.303l-32.879-19.729c-3.936-2.36-8.972-1.741-12.216,1.504l-42.43,42.43
	c-3.245,3.245-3.865,8.282-1.503,12.217l19.729,32.879c-11.71,19.008-20.2,39.557-25.303,61.241l-43.076,9.457
	C3.269,217.239,0,221.304,0,226v60c0,4.695,3.267,8.759,7.853,9.767l43.51,9.566c5.223,21.515,13.708,41.792,25.288,60.437
	l-20.146,33.576c-2.361,3.935-1.741,8.971,1.504,12.216l42.43,42.43c3.244,3.243,8.28,3.864,12.215,1.504l34.11-20.465
	c18.602,11.29,38.607,19.51,59.634,24.506l9.836,44.616c1.011,4.584,5.072,7.848,9.766,7.848h60c4.693,0,8.755-3.264,9.766-7.848
	l9.836-44.616c21.027-4.996,41.032-13.216,59.634-24.506l34.11,20.465c3.934,2.36,8.972,1.742,12.216-1.504l42.43-42.43
	c3.244-3.245,3.864-8.281,1.504-12.216L435.35,365.77c11.58-18.645,20.064-38.922,25.288-60.437l43.51-9.566
	c4.586-1.008,7.853-5.071,7.853-9.767v-60C512,221.304,508.731,217.239,504.145,216.232z M492,277.96l-41.857,9.203
	c-3.839,0.844-6.827,3.858-7.638,7.704c-4.95,23.489-14.12,45.422-27.254,65.188c-2.136,3.214-2.231,7.37-0.246,10.679
	l19.323,32.206l-31.389,31.388l-32.675-19.604c-3.271-1.964-7.378-1.895-10.583,0.184c-19.831,12.852-41.524,21.749-64.477,26.445
	c-3.869,0.792-6.91,3.787-7.761,7.644L277.965,492h-43.929l-9.48-43.003c-0.851-3.856-3.892-6.852-7.761-7.644
	c-22.952-4.696-44.645-13.594-64.476-26.445c-3.204-2.076-7.31-2.146-10.583-0.184l-32.675,19.604L77.672,402.94l19.323-32.206
	c1.985-3.309,1.89-7.465-0.246-10.679c-13.134-19.767-22.304-41.699-27.254-65.188c-0.811-3.846-3.799-6.86-7.638-7.704L20,277.96
	v-43.917l41.475-9.105c3.868-0.85,6.87-3.901,7.656-7.782c4.781-23.603,13.937-45.797,27.212-65.967
	c2.113-3.211,2.199-7.348,0.222-10.644L77.672,109.06l31.387-31.388l31.485,18.894c3.297,1.977,7.434,1.892,10.643-0.222
	c20.17-13.275,42.365-22.431,65.968-27.213c3.881-0.786,6.933-3.789,7.782-7.656L234.042,20h43.915l9.105,41.475
	c0.85,3.867,3.901,6.87,7.782,7.656c23.603,4.782,45.797,13.938,65.967,27.213c3.212,2.111,7.348,2.198,10.644,0.222l31.485-18.894
	l31.388,31.388l-18.894,31.485c-1.977,3.296-1.891,7.433,0.222,10.644c13.275,20.17,22.431,42.364,27.213,65.967
	c0.786,3.881,3.789,6.933,7.656,7.782L492,234.043V277.96z"/>
<g>
</g>
<g>
</g>
<g>
</g>
<g>
</g>
<g>
</g>
<g>
</g>
<g>
</g>
<g>
</g>
<g>
</g>
<g>
</g>
<g>
</g>
<g>
</g>
<g>
</g>
<g>
</g>
<g>
</g>
</svg>
