<svg height="512" viewBox="0 0 64 64" width="512" xmlns="http://www.w3.org/2000/svg"><g id="Bank-money-exchage-finance-credit"><path d="m3 33h58v28h-58z" fill="#009698"/><path d="m55 17h-46l23-14z" fill="#a78966"/><path d="m53 17v2a2.006 2.006 0 0 1 -2 2h-38a2.006 2.006 0 0 1 -2-2v-2z" fill="#fee9ab"/><path d="m50 21v2a2.006 2.006 0 0 1 -2 2h-4a2.006 2.006 0 0 1 -2-2v-2z" fill="#c6c5ca"/><path d="m44 25h4v8h-4z" fill="#898890"/><path d="m44 25v8h-10v-8a2.006 2.006 0 0 0 2-2v-2h6v2a2.006 2.006 0 0 0 2 2z" fill="#e0e0e2"/><circle cx="32" cy="47" fill="#ffcd00" r="10"/><path d="m36 21v2a2.006 2.006 0 0 1 -2 2h-4a2.006 2.006 0 0 1 -2-2v-2z" fill="#c6c5ca"/><path d="m30 25h4v8h-4z" fill="#898890"/><circle cx="32" cy="11" fill="#ff3051" r="2"/><path d="m30 25v8h-10v-8a2.006 2.006 0 0 0 2-2v-2h6v2a2.006 2.006 0 0 0 2 2z" fill="#e0e0e2"/><path d="m22 21v2a2.006 2.006 0 0 1 -2 2h-4a2.006 2.006 0 0 1 -2-2v-2z" fill="#c6c5ca"/><path d="m16 25h4v8h-4z" fill="#898890"/><path d="m42 47a10 10 0 0 1 -10 10 9.049 9.049 0 0 1 -1.48-.12 10 10 0 0 0 0-19.76 9.049 9.049 0 0 1 1.48-.12 10 10 0 0 1 10 10z" fill="#ddb200"/><path d="m57 33h4v28h-4z" fill="#007579"/><path d="m55 17h-4l-21-12.78 2-1.22z" fill="#806749"/><path d="m53 17v2a2.006 2.006 0 0 1 -2 2h-3a2.006 2.006 0 0 0 2-2v-2z" fill="#ffd422"/><path d="m50 21v2a2.006 2.006 0 0 1 -2 2h-3a2.006 2.006 0 0 0 2-2v-2z" fill="#acabb1"/><g fill="#57565c"><path d="m46 25h2v8h-2z"/><path d="m32 25h2v8h-2z"/><path d="m18 25h2v8h-2z"/></g><path d="m61 32h-12v-6.18a3.01 3.01 0 0 0 2-2.82v-1a3.009 3.009 0 0 0 3-3v-1h1a1 1 0 0 0 .52-1.85l-23-14a.976.976 0 0 0 -1.04 0l-23 14a1 1 0 0 0 .52 1.85h1v1a3.009 3.009 0 0 0 3 3v1a3.01 3.01 0 0 0 2 2.82v6.18h-12a1 1 0 0 0 -1 1v28a1 1 0 0 0 1 1h58a1 1 0 0 0 1-1v-28a1 1 0 0 0 -1-1zm-12-9a1 1 0 0 1 -1 1h-4a1 1 0 0 1 -1-1v-1h6zm-2 3v6h-2v-6zm-15-21.83 19.43 11.83h-38.86zm-19 15.83a1 1 0 0 1 -1-1v-1h40v1a1 1 0 0 1 -1 1zm17 4a1 1 0 0 1 -1-1v-1h6v1a1 1 0 0 1 -1 1zm3 2v6h-2v-6zm2-.18a3.01 3.01 0 0 0 2-2.82v-1h4v1a3.01 3.01 0 0 0 2 2.82v6.18h-8zm-19-1.82a1 1 0 0 1 -1-1v-1h6v1a1 1 0 0 1 -1 1zm3 2v6h-2v-6zm2-.18a3.01 3.01 0 0 0 2-2.82v-1h4v1a3.01 3.01 0 0 0 2 2.82v6.18h-8zm39 34.18h-56v-26h56z"/><path d="m32 58a11 11 0 1 0 -11-11 11.013 11.013 0 0 0 11 11zm0-20a9 9 0 1 1 -9 9 9.011 9.011 0 0 1 9-9z"/><path d="m32 50a1 1 0 0 1 -1-1h-2a3 3 0 0 0 2 2.816v1.184h2v-1.184a2.993 2.993 0 0 0 -1-5.816 1 1 0 1 1 1-1h2a3 3 0 0 0 -2-2.816v-1.184h-2v1.184a2.993 2.993 0 0 0 1 5.816 1 1 0 0 1 0 2z"/><path d="m8 40.874a4.016 4.016 0 0 0 2.874-2.874h2.126v-2h-3a1 1 0 0 0 -1 1 2 2 0 0 1 -2 2 1 1 0 0 0 -1 1v3h2z"/><path d="m7 55a2 2 0 0 1 2 2 1 1 0 0 0 1 1h3v-2h-2.126a4.016 4.016 0 0 0 -2.874-2.874v-2.126h-2v3a1 1 0 0 0 1 1z"/><path d="m56 40.874v2.126h2v-3a1 1 0 0 0 -1-1 2 2 0 0 1 -2-2 1 1 0 0 0 -1-1h-3v2h2.126a4.016 4.016 0 0 0 2.874 2.874z"/><path d="m55 57a2 2 0 0 1 2-2 1 1 0 0 0 1-1v-3h-2v2.126a4.016 4.016 0 0 0 -2.874 2.874h-2.126v2h3a1 1 0 0 0 1-1z"/><path d="m21 12h2v2h-2z"/><path d="m25 12h2v2h-2z"/><path d="m37 12h2v2h-2z"/><path d="m41 12h2v2h-2z"/><path d="m32 8a3 3 0 1 0 3 3 3 3 0 0 0 -3-3zm0 4a1 1 0 1 1 1-1 1 1 0 0 1 -1 1z"/><path d="m4 10a3 3 0 0 1 3-3h7.586l-1.293 1.293 1.414 1.414 3-3a1 1 0 0 0 0-1.414l-3-3-1.414 1.414 1.293 1.293h-7.586a5.006 5.006 0 0 0 -5 5v12h2z"/><path d="m57 5h-7.586l1.293-1.293-1.414-1.414-3 3a1 1 0 0 0 0 1.414l3 3 1.414-1.414-1.293-1.293h7.586a3 3 0 0 1 3 3v12h2v-12a5.006 5.006 0 0 0 -5-5z"/></g></svg>